# xmcd
#
# Track frame offsets:
#	150
#	20048
#	25380
#	42412
#	60457
#	74833
#	100214
#	115286
#	145765
#	166095
#	180775
#	197148
#	208739
#
# Disc length: 3631 seconds
#
# Revision: 0
# Processed by: cddbd v1.5.2PL0 Copyright (c) Steve Scherf et al.
# Submitted via: EZCDAudioConverter 2.1.7.1
#
DISCID=ba0e2d0d
DTITLE=Tully - Sea Of Joy 
DYEAR=1900
DGENRE=
TTITLE0=Sea Of Joy (Part 1)
TTITLE1=Pseudo-Tragic-Dramatic
TTITLE2=Follow Me
TTITLE3=Cat-Clarinet Mit Orgel
TTITLE4=Trinidad
TTITLE5=I Feel The Sun
TTITLE6=Thank You
TTITLE7=Syndrone
TTITLE8=Softly, Softly
TTITLE9=Brother Sun
TTITLE10=Down To The Sea
TTITLE11=Sea Of Joy (Part 2)
TTITLE12=Radio Interview 1971
EXTD=
EXTT0=
EXTT1=
EXTT2=
EXTT3=
EXTT4=
EXTT5=
EXTT6=
EXTT7=
EXTT8=
EXTT9=
EXTT10=
EXTT11=
EXTT12=
PLAYORDER=
